<svg width="329" height="281" viewBox="0 0 329 281" fill="none" xmlns="http://www.w3.org/2000/svg">
<path fill-rule="evenodd" clip-rule="evenodd" d="M74.0719 8.74705C74.0719 6.664 74.0719 4.5822 74.0719 2.49916C71.5694 2.49916 69.0668 2.49916 66.5642 2.49916C67.0222 1.00591 68.0645 0.173691 69.6924 0C72.2913 0.646032 74.7939 1.4795 77.2001 2.49916C82.3542 1.0509 87.5683 1.0509 92.8412 2.49916C93.0539 4.1511 92.6373 5.60936 91.5899 6.87268C85.5312 7.73739 79.6915 8.36218 74.0719 8.74705Z" fill="#262E34"/>
<path d="M20.064 269.576C17.472 269.576 15.056 269.16 12.816 268.328C10.608 267.464 8.688 266.248 7.056 264.68C5.424 263.112 4.144 261.272 3.216 259.16C2.32 257.048 1.872 254.728 1.872 252.2C1.872 249.672 2.32 247.352 3.216 245.24C4.144 243.128 5.424 241.288 7.056 239.72C8.72 238.152 10.656 236.952 12.864 236.12C15.072 235.256 17.488 234.824 20.112 234.824C23.024 234.824 25.648 235.336 27.984 236.36C30.352 237.352 32.336 238.824 33.936 240.776L28.944 245.384C27.792 244.072 26.512 243.096 25.104 242.456C23.696 241.784 22.16 241.448 20.496 241.448C18.928 241.448 17.488 241.704 16.176 242.216C14.864 242.728 13.728 243.464 12.768 244.424C11.808 245.384 11.056 246.52 10.512 247.832C10 249.144 9.744 250.6 9.744 252.2C9.744 253.8 10 255.256 10.512 256.568C11.056 257.88 11.808 259.016 12.768 259.976C13.728 260.936 14.864 261.672 16.176 262.184C17.488 262.696 18.928 262.952 20.496 262.952C22.16 262.952 23.696 262.632 25.104 261.992C26.512 261.32 27.792 260.312 28.944 258.968L33.936 263.576C32.336 265.528 30.352 267.016 27.984 268.04C25.648 269.064 23.008 269.576 20.064 269.576ZM38.6591 269V233.384H46.1471V269H38.6591ZM63.9926 269.384C61.8486 269.384 59.9286 268.968 58.2326 268.136C56.5686 267.304 55.2726 266.04 54.3446 264.344C53.4166 262.616 52.9526 260.424 52.9526 257.768V243.176H60.4406V256.664C60.4406 258.808 60.8886 260.392 61.7846 261.416C62.7126 262.408 64.0086 262.904 65.6726 262.904C66.8246 262.904 67.8486 262.664 68.7446 262.184C69.6406 261.672 70.3446 260.904 70.8566 259.88C71.3686 258.824 71.6246 257.512 71.6246 255.944V243.176H79.1126V269H72.0086V261.896L73.3046 263.96C72.4406 265.752 71.1606 267.112 69.4646 268.04C67.8006 268.936 65.9766 269.384 63.9926 269.384ZM101.314 269.384C99.0418 269.384 97.0898 268.904 95.4578 267.944C93.8258 266.984 92.5778 265.528 91.7138 263.576C90.8498 261.592 90.4178 259.096 90.4178 256.088C90.4178 253.048 90.8658 250.552 91.7618 248.6C92.6898 246.648 93.9698 245.192 95.6018 244.232C97.2338 243.272 99.1378 242.792 101.314 242.792C103.746 242.792 105.922 243.336 107.842 244.424C109.794 245.512 111.33 247.048 112.45 249.032C113.602 251.016 114.178 253.368 114.178 256.088C114.178 258.776 113.602 261.112 112.45 263.096C111.33 265.08 109.794 266.632 107.842 267.752C105.922 268.84 103.746 269.384 101.314 269.384ZM86.0498 269V233.384H93.5378V248.408L93.0578 256.04L93.2018 263.72V269H86.0498ZM100.018 263.24C101.266 263.24 102.37 262.952 103.33 262.376C104.322 261.8 105.106 260.984 105.682 259.928C106.29 258.84 106.594 257.56 106.594 256.088C106.594 254.584 106.29 253.304 105.682 252.248C105.106 251.192 104.322 250.376 103.33 249.8C102.37 249.224 101.266 248.936 100.018 248.936C98.7698 248.936 97.6498 249.224 96.6578 249.8C95.6658 250.376 94.8818 251.192 94.3058 252.248C93.7298 253.304 93.4418 254.584 93.4418 256.088C93.4418 257.56 93.7298 258.84 94.3058 259.928C94.8818 260.984 95.6658 261.8 96.6578 262.376C97.6498 262.952 98.7698 263.24 100.018 263.24ZM135.798 269.576C133.206 269.576 130.79 269.16 128.55 268.328C126.342 267.464 124.422 266.248 122.79 264.68C121.158 263.112 119.878 261.272 118.95 259.16C118.054 257.048 117.606 254.728 117.606 252.2C117.606 249.672 118.054 247.352 118.95 245.24C119.878 243.128 121.158 241.288 122.79 239.72C124.454 238.152 126.39 236.952 128.598 236.12C130.806 235.256 133.222 234.824 135.846 234.824C138.758 234.824 141.382 235.336 143.718 236.36C146.086 237.352 148.07 238.824 149.67 240.776L144.678 245.384C143.526 244.072 142.246 243.096 140.838 242.456C139.43 241.784 137.894 241.448 136.23 241.448C134.662 241.448 133.222 241.704 131.91 242.216C130.598 242.728 129.462 243.464 128.502 244.424C127.542 245.384 126.79 246.52 126.246 247.832C125.734 249.144 125.478 250.6 125.478 252.2C125.478 253.8 125.734 255.256 126.246 256.568C126.79 257.88 127.542 259.016 128.502 259.976C129.462 260.936 130.598 261.672 131.91 262.184C133.222 262.696 134.662 262.952 136.23 262.952C137.894 262.952 139.43 262.632 140.838 261.992C142.246 261.32 143.526 260.312 144.678 258.968L149.67 263.576C148.07 265.528 146.086 267.016 143.718 268.04C141.382 269.064 138.742 269.576 135.798 269.576ZM165.791 269.384C163.039 269.384 160.591 268.808 158.447 267.656C156.335 266.504 154.655 264.936 153.407 262.952C152.191 260.936 151.583 258.648 151.583 256.088C151.583 253.496 152.191 251.208 153.407 249.224C154.655 247.208 156.335 245.64 158.447 244.52C160.591 243.368 163.039 242.792 165.791 242.792C168.511 242.792 170.943 243.368 173.087 244.52C175.231 245.64 176.911 247.192 178.127 249.176C179.343 251.16 179.951 253.464 179.951 256.088C179.951 258.648 179.343 260.936 178.127 262.952C176.911 264.936 175.231 266.504 173.087 267.656C170.943 268.808 168.511 269.384 165.791 269.384ZM165.791 263.24C167.039 263.24 168.159 262.952 169.151 262.376C170.143 261.8 170.927 260.984 171.503 259.928C172.079 258.84 172.367 257.56 172.367 256.088C172.367 254.584 172.079 253.304 171.503 252.248C170.927 251.192 170.143 250.376 169.151 249.8C168.159 249.224 167.039 248.936 165.791 248.936C164.543 248.936 163.423 249.224 162.431 249.8C161.439 250.376 160.639 251.192 160.031 252.248C159.455 253.304 159.167 254.584 159.167 256.088C159.167 257.56 159.455 258.84 160.031 259.928C160.639 260.984 161.439 261.8 162.431 262.376C163.423 262.952 164.543 263.24 165.791 263.24ZM218.028 242.792C220.076 242.792 221.884 243.208 223.452 244.04C225.052 244.84 226.3 246.088 227.196 247.784C228.124 249.448 228.588 251.592 228.588 254.216V269H221.1V255.368C221.1 253.288 220.668 251.752 219.804 250.76C218.94 249.768 217.724 249.272 216.156 249.272C215.068 249.272 214.092 249.528 213.228 250.04C212.364 250.52 211.692 251.256 211.212 252.248C210.732 253.24 210.492 254.504 210.492 256.04V269H203.004V255.368C203.004 253.288 202.572 251.752 201.708 250.76C200.876 249.768 199.676 249.272 198.108 249.272C197.02 249.272 196.044 249.528 195.18 250.04C194.316 250.52 193.644 251.256 193.164 252.248C192.684 253.24 192.444 254.504 192.444 256.04V269H184.956V243.176H192.108V250.232L190.764 248.168C191.66 246.408 192.924 245.08 194.556 244.184C196.22 243.256 198.108 242.792 200.22 242.792C202.588 242.792 204.652 243.4 206.412 244.616C208.204 245.8 209.388 247.624 209.964 250.088L207.324 249.368C208.188 247.352 209.564 245.752 211.452 244.568C213.372 243.384 215.564 242.792 218.028 242.792ZM250.564 269.384C248.388 269.384 246.484 268.904 244.852 267.944C243.22 266.984 241.94 265.528 241.012 263.576C240.116 261.592 239.668 259.096 239.668 256.088C239.668 253.048 240.1 250.552 240.964 248.6C241.828 246.648 243.076 245.192 244.708 244.232C246.34 243.272 248.292 242.792 250.564 242.792C252.996 242.792 255.172 243.352 257.092 244.472C259.044 245.56 260.58 247.096 261.7 249.08C262.852 251.064 263.428 253.4 263.428 256.088C263.428 258.808 262.852 261.16 261.7 263.144C260.58 265.128 259.044 266.664 257.092 267.752C255.172 268.84 252.996 269.384 250.564 269.384ZM235.3 278.312V243.176H242.452V248.456L242.308 256.136L242.788 263.768V278.312H235.3ZM249.268 263.24C250.516 263.24 251.62 262.952 252.58 262.376C253.572 261.8 254.356 260.984 254.932 259.928C255.54 258.84 255.844 257.56 255.844 256.088C255.844 254.584 255.54 253.304 254.932 252.248C254.356 251.192 253.572 250.376 252.58 249.8C251.62 249.224 250.516 248.936 249.268 248.936C248.02 248.936 246.9 249.224 245.908 249.8C244.916 250.376 244.132 251.192 243.556 252.248C242.98 253.304 242.692 254.584 242.692 256.088C242.692 257.56 242.98 258.84 243.556 259.928C244.132 260.984 244.916 261.8 245.908 262.376C246.9 262.952 248.02 263.24 249.268 263.24ZM279 269.384C275.96 269.384 273.592 268.616 271.896 267.08C270.2 265.512 269.352 263.192 269.352 260.12V237.464H276.84V260.024C276.84 261.112 277.128 261.96 277.704 262.568C278.28 263.144 279.064 263.432 280.056 263.432C281.24 263.432 282.248 263.112 283.08 262.472L285.096 267.752C284.328 268.296 283.4 268.712 282.312 269C281.256 269.256 280.152 269.384 279 269.384ZM265.368 249.512V243.752H283.272V249.512H265.368ZM305.14 269V263.96L304.66 262.856V253.832C304.66 252.232 304.164 250.984 303.172 250.088C302.212 249.192 300.724 248.744 298.708 248.744C297.332 248.744 295.972 248.968 294.628 249.416C293.316 249.832 292.196 250.408 291.268 251.144L288.58 245.912C289.988 244.92 291.684 244.152 293.668 243.608C295.652 243.064 297.668 242.792 299.716 242.792C303.652 242.792 306.708 243.72 308.884 245.576C311.06 247.432 312.148 250.328 312.148 254.264V269H305.14ZM297.268 269.384C295.252 269.384 293.524 269.048 292.084 268.376C290.644 267.672 289.54 266.728 288.772 265.544C288.004 264.36 287.62 263.032 287.62 261.56C287.62 260.024 287.988 258.68 288.724 257.528C289.492 256.376 290.692 255.48 292.324 254.84C293.956 254.168 296.084 253.832 298.708 253.832H305.572V258.2H299.524C297.764 258.2 296.548 258.488 295.876 259.064C295.236 259.64 294.916 260.36 294.916 261.224C294.916 262.184 295.284 262.952 296.02 263.528C296.788 264.072 297.828 264.344 299.14 264.344C300.388 264.344 301.508 264.056 302.5 263.48C303.492 262.872 304.212 261.992 304.66 260.84L305.812 264.296C305.268 265.96 304.276 267.224 302.836 268.088C301.396 268.952 299.54 269.384 297.268 269.384Z" fill="black"/>
<path fill-rule="evenodd" clip-rule="evenodd" d="M246.749 0C253.401 2.85529 254.861 7.02013 251.129 12.4958C250.92 14.5788 250.712 16.6606 250.503 18.7437C250.936 29.4338 250.936 40.2639 250.503 51.2327C248.062 51.5739 246.185 50.7416 244.872 48.7336C244.647 36.7664 244.021 24.8954 242.995 13.1206C244.053 11.1737 243.219 9.92415 240.493 9.37184C237.532 8.66958 234.613 8.87701 231.734 9.99663C228.424 9.23689 225.087 8.6121 221.723 8.12226C220.29 4.92709 221.541 3.2614 225.477 3.12395C230.874 3.43009 236.297 3.43009 241.744 3.12395C243.443 1.95684 245.113 0.914692 246.749 0Z" fill="#1A1E21"/>
<path fill-rule="evenodd" clip-rule="evenodd" d="M189.19 146.201C187.238 144.131 185.987 141.632 185.436 138.703C185.436 132.039 185.436 125.374 185.436 118.71C186.083 83.4781 186.501 48.0725 186.688 12.4957C190.401 5.08448 195.823 3.62747 202.954 8.12221C207.533 13.4279 209.619 19.6758 209.211 26.8659C208.132 59.9735 207.923 93.0873 208.585 126.207C204.427 135.149 197.962 141.815 189.19 146.201Z" fill="#E3241E"/>
<path fill-rule="evenodd" clip-rule="evenodd" d="M66.5642 2.49915C69.0667 2.49915 71.5693 2.49915 74.0719 2.49915C74.0719 4.58219 74.0719 6.66399 74.0719 8.74704C73.2998 8.88574 72.6742 9.30185 72.1949 9.99662C71.9309 23.7995 71.3053 37.5448 70.318 51.2327C68.4473 50.6217 66.7781 49.7894 65.3129 48.7336C64.422 35.0594 63.5874 21.3141 62.8103 7.49746C62.9605 4.88834 64.2117 3.2214 66.5642 2.49915Z" fill="#1A1D21"/>
<path fill-rule="evenodd" clip-rule="evenodd" d="M139.139 11.2462C148.042 10.7152 156.801 11.34 165.416 13.1206C171.065 21.1441 169.814 27.8082 161.662 33.1139C132.585 32.9439 110.687 45.231 95.9694 69.9764C89.5103 85.1801 87.4244 101.008 89.713 117.46C91.8878 127.618 95.4326 137.198 100.349 146.201C100.279 149.463 99.0276 152.171 96.5951 154.323C93.094 156.715 89.3401 157.964 85.3335 158.072C80.8927 153.608 77.3466 148.401 74.6976 142.452C56.4964 91.6041 69.6349 50.9928 114.113 20.6181C122.453 17.0605 130.795 13.9366 139.139 11.2462Z" fill="#E32A21"/>
<path fill-rule="evenodd" clip-rule="evenodd" d="M186.688 12.4958C186.501 48.0726 186.083 83.4782 185.436 118.71C184.941 84.1354 184.732 49.5633 184.811 14.995C185.158 13.8504 185.784 13.0182 186.688 12.4958Z" fill="#EAA59D"/>
<path fill-rule="evenodd" clip-rule="evenodd" d="M152.903 47.4839C159.661 46.0369 164.874 48.12 168.544 53.7318C169.379 87.8866 169.379 122.043 168.544 156.197C161.458 159.44 154.159 159.232 146.647 155.572C146.526 122.108 146.734 88.1602 147.272 53.7318C148.555 50.999 150.432 48.916 152.903 47.4839Z" fill="#6EBE8C"/>
<path fill-rule="evenodd" clip-rule="evenodd" d="M65.3128 48.7334C66.7781 49.7893 68.4473 50.6215 70.318 51.2326C67.7491 54.7114 65.6644 54.2953 64.0615 49.983C64.2167 49.2245 64.6334 48.8084 65.3128 48.7334Z" fill="#708F87"/>
<path fill-rule="evenodd" clip-rule="evenodd" d="M226.729 49.983C233.839 51.0364 239.053 54.7852 242.37 61.2292C259.769 105.287 250.385 144.231 214.216 178.065C186.854 198.487 157.658 203.069 126.626 191.81C120.042 188.518 113.785 184.769 107.857 180.564C103.275 175.117 102.649 169.494 105.98 163.695C109.099 160.981 112.644 159.938 116.616 160.571C152.597 182.332 184.921 177.959 213.59 147.45C220.332 137.197 224.503 126.367 226.103 114.961C227.919 97.6869 225.624 81.2337 219.221 65.6028C219.99 64.1907 219.99 62.5251 219.221 60.6045C219.403 59.0725 219.819 57.6142 220.473 56.2309C222.851 54.3491 224.937 52.266 226.729 49.983Z" fill="#71C08E"/>
<path fill-rule="evenodd" clip-rule="evenodd" d="M114.113 67.4773C118.305 67.2711 122.475 67.4798 126.626 68.1021C128.129 69.2304 129.172 70.6874 129.754 72.4756C129.993 96.6649 130.619 120.823 131.631 144.951C131.714 147.158 130.67 148.407 128.503 148.7C120.177 143.717 113.502 137.053 108.482 128.707C107.356 113.302 106.939 97.8895 107.231 82.4722C107.974 76.6779 110.269 71.6796 114.113 67.4773Z" fill="#FCDC88"/>
<path fill-rule="evenodd" clip-rule="evenodd" d="M185.436 138.703C185.987 141.632 187.238 144.131 189.19 146.201C188.801 147.423 187.966 148.256 186.688 148.7C185.461 145.468 185.045 142.136 185.436 138.703Z" fill="#EFAF98"/>
<path fill-rule="evenodd" clip-rule="evenodd" d="M65.3129 156.197C67.3701 155.93 69.247 156.347 70.9437 157.447C71.3604 168.693 71.7783 179.939 72.195 191.186C79.8091 192.2 87.5258 192.825 95.3438 193.06C98.9926 193.121 100.244 194.579 99.0977 197.433C97.232 198.363 95.3551 199.195 93.4669 199.933C87.2655 200.105 81.218 199.688 75.3232 198.683C68.8991 202.808 64.3107 201.351 61.5591 194.31C62.3424 193.372 62.968 192.33 63.436 191.186C63.9916 179.232 64.6172 167.569 65.3129 156.197Z" fill="#1E2123"/>
<path fill-rule="evenodd" clip-rule="evenodd" d="M219.221 198.683C218.303 197.174 217.886 195.508 217.97 193.685C226.118 193.725 234.459 193.309 242.996 192.435C242.654 180.753 243.28 169.091 244.873 157.447C246.569 156.347 248.446 155.93 250.503 156.197C251.123 169.554 251.54 182.467 251.755 194.934C250.545 197.596 249.084 200.095 247.375 202.432C238.166 200.327 228.781 199.078 219.221 198.683Z" fill="#191B1D"/>
<path fill-rule="evenodd" clip-rule="evenodd" d="M217.97 193.685C217.886 195.508 218.303 197.173 219.221 198.683C217.862 198.533 217.028 197.699 216.719 196.184C216.773 195.039 217.189 194.206 217.97 193.685Z" fill="#747371"/>
<path fill-rule="evenodd" clip-rule="evenodd" d="M316.821 218.676C326.196 217.831 330.159 221.996 328.709 231.172C324.273 238.306 318.85 239.138 312.442 233.671C309.256 227.223 310.716 222.225 316.821 218.676ZM318.073 219.926C326.017 220.584 328.729 224.75 326.206 232.422C322.846 236.819 319.092 237.235 314.944 233.671C311.941 228.036 312.984 223.453 318.073 219.926Z" fill="#696969"/>
<path fill-rule="evenodd" clip-rule="evenodd" d="M318.073 222.425C320.782 221.945 322.868 222.778 324.329 224.924C323.214 226.286 321.963 226.286 320.575 224.924C315.863 226.812 315.655 228.895 319.95 231.172C321.042 230.878 322.086 230.461 323.078 229.922C324.593 230.889 324.593 231.93 323.078 233.046C318.538 234.691 315.619 233.232 314.319 228.673C315.026 226.162 316.277 224.079 318.073 222.425Z" fill="#464646"/>
</svg>
